<svg width="41" height="41" viewBox="0 0 41 41" fill="none" xmlns="http://www.w3.org/2000/svg">
<path d="M35.0037 30.3036C35.2154 29.1796 35.21 28.0255 34.9877 26.9036L38.041 19.535C38.0413 19.5301 38.0413 19.5252 38.041 19.5203C38.5358 18.1657 39.2609 16.9068 40.1843 15.799C40.4141 15.5563 40.5065 15.2144 40.4303 14.889L39.1783 9.4824C39.1634 9.42588 39.141 9.37162 39.1117 9.32107C39.1063 9.31107 39.1043 9.29908 39.099 9.28973C39.0937 9.28041 39.0703 9.25774 39.057 9.24041C39.0297 9.20047 38.9982 9.16358 38.963 9.1304C38.9398 9.11409 38.9155 9.09939 38.8903 9.0864C38.8578 9.06248 38.8233 9.0415 38.787 9.02374C38.7368 9.00476 38.6844 8.99199 38.631 8.98574C38.6157 8.98574 38.6023 8.97575 38.587 8.97441C38.4592 8.9659 38.3317 8.99436 38.2197 9.05641C38.2097 9.06174 38.1977 9.06375 38.1877 9.06975H38.181L33.4737 12.0077C33.1886 12.1842 33.0117 12.4925 33.003 12.8277C32.8723 14.2671 32.4931 15.673 31.8824 16.983V16.9903L30.3564 20.679C29.6074 20.2808 28.8056 19.9913 27.9751 19.819C28.2895 17.649 28.4051 15.4548 28.3204 13.2637C29.5614 11.7747 30.157 9.85217 29.9751 7.92241C29.5584 4.0371 26.0471 1.23112 25.8971 1.11312C25.6716 0.935585 25.3579 0.922233 25.1182 1.07998C24.8785 1.23772 24.7666 1.53116 24.8404 1.80845C25.1838 3.09777 24.8864 4.45843 22.3504 7.25641C21.211 8.35661 20.8499 10.0365 21.4364 11.5077C21.6607 12.0704 21.982 12.5894 22.3858 13.041C22.2244 14.071 22.0978 15.0464 22.0104 15.9964C21.8601 17.5676 21.8213 19.1476 21.8944 20.7243C21.2997 21.0468 20.7429 21.4347 20.2345 21.881L17.0011 8.05441C17.0011 8.04041 16.9878 8.03042 16.9838 8.01775C16.973 7.9733 16.9573 7.93015 16.9371 7.88908L13.6345 1.78978C13.304 1.1793 12.6057 0.865596 11.9298 1.0239C11.2539 1.18221 10.7676 1.77335 10.7425 2.46711L10.4918 9.39707C10.492 9.44708 10.4976 9.49693 10.5085 9.54573C10.5085 9.5564 10.5085 9.56573 10.5085 9.57574L13.8072 23.6536C13.2868 23.6766 12.7702 23.7537 12.2658 23.8836L8.63719 15.1204C8.34622 14.4505 7.57449 14.1344 6.8972 14.4077L1.35124 16.7037C0.672486 16.987 0.349923 17.7653 0.629241 18.4457L5.55054 30.3176C2.66623 30.469 0.427358 32.8903 0.501804 35.7776C0.57625 38.6649 2.93693 40.9676 5.82521 40.9702H35.1584C37.0638 40.9426 38.8097 39.9005 39.7385 38.2366C40.6672 36.5726 40.6378 34.5396 39.6611 32.9033C38.6845 31.267 36.9091 30.276 35.0037 30.3036ZM34.3244 13.0477L37.119 11.3037L36.1297 13.693C35.9887 14.0332 36.1502 14.4233 36.4904 14.5644C36.8306 14.7054 37.2207 14.5439 37.3617 14.2037L38.351 11.8144L39.0917 15.023C38.2992 15.9898 37.6483 17.0643 37.1584 18.2143C36.4633 18.5365 35.6652 18.5532 34.9572 18.2604C34.2493 17.9676 33.6961 17.392 33.4317 16.673C33.8999 15.5131 34.2005 14.2924 34.3244 13.0477ZM32.791 18.2817C33.2321 18.8209 33.8044 19.2376 34.453 19.4917C34.9686 19.7134 35.5231 19.8304 36.0844 19.8357C36.2194 19.8352 36.3543 19.8269 36.4884 19.811L34.361 24.9443C33.724 23.5398 32.7386 22.3215 31.4984 21.405L32.791 18.2817ZM23.6578 13.5204L27.0071 13.725C27.0277 14.3477 27.0204 14.9917 26.9997 15.6457C25.884 15.7254 24.7627 15.6712 23.6598 15.4844C23.5758 15.4724 23.4938 15.463 23.4104 15.4517C23.4771 14.8237 23.5584 14.1877 23.6564 13.5204H23.6578ZM23.3398 8.15174C25.1098 6.19909 26.0271 4.6971 26.2404 3.2851C27.5127 4.59413 28.3525 6.26213 28.6464 8.06375C28.7864 9.63214 28.3015 11.1923 27.2971 12.405C25.9802 12.325 24.6778 12.245 23.3898 12.165C22.8363 11.6477 22.518 10.9269 22.5083 10.1693C22.4986 9.41181 22.7984 8.6831 23.3384 8.15174H23.3398ZM23.2891 16.7803L23.4824 16.8057C24.3415 16.9385 25.2086 17.0123 26.0778 17.0263C26.3538 17.0263 26.6444 17.0043 26.9357 16.9817C26.8751 17.8397 26.7757 18.7357 26.6497 19.6617C26.4851 19.653 26.3238 19.637 26.1584 19.637C25.1519 19.6388 24.1529 19.8108 23.2038 20.1457C23.173 19.0232 23.2011 17.8999 23.2878 16.7803H23.2891ZM18.1325 24.5763L16.2251 16.4517C16.136 16.0992 15.7808 15.8832 15.4268 15.9661C15.0728 16.049 14.8505 16.4003 14.9272 16.7557L16.6411 24.0683C16.1699 23.8998 15.6831 23.7785 15.1878 23.7063L12.2618 11.2197C12.6717 11.4063 13.1168 11.5032 13.5672 11.5037C13.6092 11.5037 13.6538 11.4977 13.6965 11.4957L14.1678 13.5084C14.2186 13.7439 14.3926 13.9338 14.6229 14.0049C14.8531 14.076 15.1038 14.0172 15.2786 13.8513C15.4533 13.6853 15.5249 13.438 15.4658 13.2044L14.9938 11.1904C15.4461 10.9901 15.8451 10.6864 16.1585 10.3037L19.1331 23.023C18.7468 23.5048 18.4115 24.0254 18.1325 24.5763ZM14.0592 10.1097C13.2066 10.2751 12.336 9.92651 11.8332 9.2184L11.9178 6.87042C12.1498 6.91374 12.3852 6.93605 12.6212 6.93708C12.8491 6.93804 13.0764 6.91277 13.2985 6.86175C13.7482 6.74364 14.1689 6.53443 14.5345 6.24709L15.6572 8.31907C15.5234 9.17875 14.898 9.88011 14.0592 10.1111V10.1097ZM12.2332 2.32178C12.324 2.30074 12.4177 2.3427 12.4625 2.42444L13.8918 5.06776C13.634 5.30102 13.3261 5.47207 12.9918 5.56776C12.6502 5.63047 12.2987 5.61382 11.9645 5.51909L12.0732 2.51511C12.0768 2.42195 12.1423 2.34276 12.2332 2.32178ZM7.40853 15.637L7.91786 16.8677L5.45121 17.889C5.15879 18.0118 4.99336 18.3236 5.05566 18.6346C5.11795 18.9456 5.39072 19.1696 5.70788 19.1703C5.79547 19.1701 5.88218 19.1529 5.96321 19.1197L8.42986 18.0977L8.93986 19.3297L7.70586 19.841C7.41177 19.9627 7.24472 20.2753 7.30702 20.5875C7.36932 20.8996 7.64357 21.1242 7.96186 21.1237C8.04922 21.1233 8.1357 21.1061 8.21653 21.073L9.45052 20.5617L9.96052 21.7937L7.49187 22.817C7.19777 22.9387 7.03073 23.2513 7.09302 23.5635C7.15532 23.8756 7.42958 24.1001 7.74786 24.0996C7.83523 24.0994 7.92172 24.0822 8.00253 24.049L10.4692 23.0276L11.0085 24.3296C8.83612 25.3212 7.24313 27.2601 6.69187 29.5836L1.8599 17.933L7.40853 15.637ZM35.1584 39.6369H5.82521C3.61608 39.6369 1.82523 37.846 1.82523 35.6369C1.82523 33.4278 3.61608 31.6369 5.82521 31.6369C6.21149 31.6356 6.59585 31.6913 6.96587 31.8023C7.16576 31.8626 7.3824 31.8259 7.55118 31.7029C7.71996 31.58 7.82138 31.385 7.8252 31.1763C7.87262 28.8003 9.24612 26.6509 11.3823 25.6096C13.5184 24.5684 16.0577 24.8106 17.9585 26.237C18.1264 26.362 18.3434 26.4008 18.5443 26.3418C18.7452 26.2829 18.9067 26.1329 18.9805 25.937C20.2829 22.4658 23.8827 20.424 27.5303 21.0874C31.178 21.7509 33.8283 24.9294 33.825 28.6369C33.8263 29.3994 33.7128 30.1576 33.4884 30.8863C33.4183 31.113 33.474 31.3598 33.6346 31.5344C33.7953 31.7091 34.0366 31.7852 34.2684 31.7343C34.5607 31.6699 34.8591 31.6373 35.1584 31.6369C37.3675 31.6369 39.1583 33.4278 39.1583 35.6369C39.1583 37.846 37.3675 39.6369 35.1584 39.6369Z" fill="#FF6881"/>
<path d="M26.2828 11.4364C26.492 11.4372 26.6895 11.3397 26.8161 11.173C27.6484 10.0466 27.9701 8.62262 27.7028 7.24775C27.6459 7.01267 27.4662 6.82682 27.2331 6.76211C27.0001 6.69741 26.7503 6.764 26.5804 6.93612C26.4105 7.10824 26.3471 7.35889 26.4148 7.59108C26.5744 8.56803 26.3362 9.56822 25.7535 10.3684C25.6019 10.5704 25.5776 10.8407 25.6905 11.0665C25.8034 11.2924 26.0343 11.435 26.2868 11.435L26.2828 11.4364Z" fill="#FF6881"/>
<path d="M25.4052 31.6364C24.9094 31.638 24.4205 31.7519 23.9752 31.9698C22.7759 30.3287 20.5366 29.848 18.7695 30.8522C17.0023 31.8564 16.2692 34.0262 17.0652 35.8964C17.17 36.1422 17.4114 36.3018 17.6786 36.3017C17.7684 36.302 17.8573 36.2838 17.9399 36.2484C18.1026 36.1791 18.231 36.048 18.2971 35.884C18.3631 35.72 18.3612 35.5364 18.2919 35.3737C18.1468 35.0355 18.0719 34.6712 18.0719 34.3031C18.0719 32.8303 19.2658 31.6364 20.7385 31.6364C21.7729 31.6313 22.715 32.2307 23.1485 33.1698C23.163 33.1915 23.1785 33.2124 23.1952 33.2324C23.2057 33.2553 23.2175 33.2775 23.2305 33.2991C23.2425 33.3138 23.2599 33.3204 23.2732 33.3344C23.3045 33.3669 23.3391 33.3959 23.3765 33.4211C23.4098 33.4467 23.4456 33.4691 23.4832 33.4878C23.5219 33.504 23.5621 33.5165 23.6032 33.5251C23.6442 33.5359 23.6862 33.5423 23.7285 33.5444C23.8151 33.5437 23.9011 33.5293 23.9832 33.5018C24.001 33.4985 24.0185 33.4943 24.0359 33.4891C24.0575 33.4751 24.0782 33.4597 24.0979 33.4431C24.1219 33.4324 24.1452 33.4204 24.1679 33.4071C24.518 33.1239 24.9548 32.9695 25.4052 32.9698C26.1847 32.971 26.8924 33.4251 27.2185 34.1331C27.3713 34.4681 27.7668 34.6159 28.1018 34.4631C28.4369 34.3103 28.5846 33.9148 28.4318 33.5798C27.889 32.3965 26.707 31.6376 25.4052 31.6364Z" fill="#FF6881"/>
<path d="M12.2812 27.0039C12.1805 27.0366 9.8252 27.8512 9.8252 30.3032C9.8252 30.6714 10.1237 30.9699 10.4919 30.9699C10.86 30.9699 11.1585 30.6714 11.1585 30.3032C11.2129 29.3732 11.8248 28.5687 12.7065 28.2679C13.0563 28.1504 13.2446 27.7717 13.1272 27.4219C13.0097 27.0721 12.631 26.8838 12.2812 27.0012V27.0039Z" fill="#FF6881"/>
<path d="M21.662 26.2842C21.715 26.2976 21.7694 26.3043 21.824 26.3042C22.1296 26.3038 22.3958 26.0959 22.47 25.7995C22.7769 24.5546 23.8789 23.6691 25.1607 23.6375C25.5289 23.6366 25.8266 23.3374 25.8257 22.9692C25.8247 22.601 25.5255 22.3033 25.1573 22.3042C23.2625 22.3293 21.625 23.6341 21.1774 25.4755C21.0879 25.8326 21.3049 26.1947 21.662 26.2842Z" fill="#FF6881"/>
</svg>
