<svg width="41" height="41" viewBox="0 0 41 41" fill="none" xmlns="http://www.w3.org/2000/svg">
<path d="M36.4999 22.9702V21.6368C36.8679 21.6368 37.1666 21.3384 37.1666 20.9702V16.9702C37.1666 16.6019 36.8679 16.3035 36.4999 16.3035H32.8999L32.7708 15.8027C32.476 14.6574 32.0182 13.5603 31.4106 12.5454L31.144 12.0993L33.6999 9.53895C33.9572 9.28114 33.9572 8.86342 33.6999 8.60561L30.8687 5.77021C30.6072 5.52099 30.1966 5.52099 29.9351 5.77021L27.3744 8.33087L26.9286 8.0642C25.9122 7.45639 24.814 6.99859 23.6671 6.70354L23.1666 6.57332V2.97021C23.1666 2.60198 22.8682 2.30354 22.5 2.30354H18.5C18.1317 2.30354 17.8333 2.60198 17.8333 2.97021V6.5702L17.3325 6.69963C16.1872 6.99415 15.0901 7.45197 14.0747 8.05874L13.6286 8.32566L11.0687 5.77021C10.807 5.51891 10.3937 5.51891 10.132 5.77021L7.29999 8.60144C7.17551 8.72566 7.10546 8.89442 7.10546 9.0702C7.10546 9.24623 7.17551 9.41473 7.29999 9.53895L9.86066 12.0993L9.594 12.5454C8.98671 13.5603 8.52863 14.6574 8.2341 15.8027L8.10337 16.3035H4.5C4.13177 16.3035 3.83333 16.6019 3.83333 16.9702V20.9702C3.83333 21.3384 4.13177 21.6368 4.5 21.6368V22.9702C3.39557 22.9702 2.5 22.0746 2.5 20.9702V16.9702C2.5 15.8657 3.39557 14.9702 4.5 14.9702H7.07942C7.35442 14.0483 7.72629 13.1582 8.18879 12.315L6.35546 10.4817C5.98046 10.1074 5.76978 9.59963 5.76978 9.0702C5.76978 8.54078 5.98046 8.03295 6.35546 7.659L9.18879 4.82567C9.97811 4.0702 11.2226 4.0702 12.012 4.82567L13.8448 6.65823C14.688 6.19598 15.5784 5.82489 16.5 5.55015V2.97021C16.5 1.86579 17.3955 0.970215 18.5 0.970215H22.5C23.6044 0.970215 24.5 1.86579 24.5 2.97021V5.55015C25.4218 5.82489 26.3117 6.19676 27.1552 6.659L28.9885 4.82567C29.7781 4.0702 31.0223 4.0702 31.8119 4.82567L34.6447 7.65823C35.0195 8.03243 35.2299 8.53973 35.2299 9.06942C35.2299 9.5991 35.0195 10.1069 34.6447 10.4809L32.8114 12.3142C33.2736 13.1579 33.6452 14.0483 33.9205 14.9702H36.4999C37.6044 14.9702 38.4999 15.8657 38.4999 16.9702V20.9702C38.4999 22.0746 37.6044 22.9702 36.4999 22.9702Z" fill="#1B75E8"/>
<path d="M29.8336 18.9695H28.5003C28.5003 14.5513 24.9185 10.9696 20.5003 10.9696C16.0821 10.9696 12.5003 14.5513 12.5003 18.9695H11.167C11.167 13.8149 15.3456 9.63623 20.5003 9.63623C25.6547 9.63623 29.8336 13.8149 29.8336 18.9695Z" fill="#1B75E8"/>
<path d="M20.5 24.3042C18.2909 24.3042 16.5 22.513 16.5 20.3042C16.5 18.0951 18.2909 16.3042 20.5 16.3042C22.7094 16.3042 24.5 18.0951 24.5 20.3042C24.4976 22.5125 22.7083 24.3018 20.5 24.3042ZM20.5 17.6375C19.0273 17.6375 17.8333 18.8315 17.8333 20.3042C17.8333 21.7768 19.0273 22.9708 20.5 22.9708C21.9726 22.9708 23.1667 21.7768 23.1667 20.3042C23.1667 18.8315 21.9726 17.6375 20.5 17.6375Z" fill="#1B75E8"/>
<path d="M31.833 26.9702C29.6239 26.9702 27.833 25.179 27.833 22.9702C27.833 20.7611 29.6239 18.9702 31.833 18.9702C34.0421 18.9702 35.833 20.7611 35.833 22.9702C35.8306 25.1785 34.0413 26.9678 31.833 26.9702ZM31.833 20.3035C30.3603 20.3035 29.1663 21.4975 29.1663 22.9702C29.1663 24.4428 30.3603 25.6369 31.833 25.6369C33.3057 25.6369 34.4997 24.4428 34.4997 22.9702C34.4997 21.4975 33.3057 20.3035 31.833 20.3035Z" fill="#1B75E8"/>
<path d="M9.16698 26.9702C6.95787 26.9702 5.16699 25.179 5.16699 22.9702C5.16699 20.7611 6.95787 18.9702 9.16698 18.9702C11.3764 18.9702 13.167 20.7611 13.167 22.9702C13.1646 25.1785 11.3753 26.9678 9.16698 26.9702ZM9.16698 20.3035C7.69433 20.3035 6.50032 21.4975 6.50032 22.9702C6.50032 24.4428 7.69433 25.6369 9.16698 25.6369C10.6396 25.6369 11.8336 24.4428 11.8336 22.9702C11.8336 21.4975 10.6396 20.3035 9.16698 20.3035Z" fill="#1B75E8"/>
<path d="M37.877 28.6807C36.8835 27.9979 35.7057 27.6336 34.4999 27.637H29.1666C28.8424 27.6399 28.5187 27.6693 28.1992 27.7248C27.7726 27.0576 27.2177 26.4821 26.5666 26.0308C26.469 25.9571 26.3664 25.8901 26.2593 25.831C25.3268 25.2662 24.2567 24.9688 23.1666 24.9703H17.8333C15.7945 24.963 13.8948 26.0034 12.8026 27.7248C12.4823 27.6693 12.158 27.6399 11.8333 27.637H6.49999C5.2953 27.6336 4.1177 27.9974 3.12473 28.6794C1.48359 29.7961 0.501042 31.6521 0.5 33.637V36.3036C0.502344 38.124 1.56146 39.7771 3.21484 40.5396C3.82525 40.8271 4.49218 40.9742 5.16666 40.9703H11.8333V39.637H5.83332V32.3037H4.49999V39.57C4.24895 39.5198 4.0052 39.4385 3.77395 39.3289C2.59296 38.7844 1.83593 37.6039 1.83333 36.3036V33.637C1.83489 32.0922 2.60026 30.6482 3.87734 29.7794C4.64895 29.2498 5.56379 28.9677 6.49999 28.9703H11.8333C11.9508 28.9703 12.064 28.9828 12.1786 28.9906C11.9531 29.6266 11.8362 30.2958 11.8333 30.9703V37.637C11.8357 39.4771 13.3268 40.968 15.1666 40.9703H17.1666V30.3037H15.8333V39.637H15.1666C14.0622 39.637 13.1666 38.7414 13.1666 37.637V30.9703C13.1666 28.3927 15.2562 26.3037 17.8333 26.3037H23.1666C24.0244 26.3042 24.8651 26.5417 25.5966 26.9896C25.6643 27.0266 25.7294 27.0683 25.7911 27.1141C26.4158 27.5419 26.9286 28.1136 27.2859 28.7807C27.645 29.4547 27.8333 30.2065 27.8333 30.9703V37.637C27.8333 38.7414 26.9377 39.637 25.8333 39.637H25.1666V30.3037H23.8333V40.9703H25.8333C27.6734 40.968 29.1643 39.4771 29.1666 37.637V30.9703C29.1635 30.2958 29.0471 29.6268 28.8218 28.9906C28.9367 28.9828 29.0499 28.9703 29.1666 28.9703H34.4999C35.4366 28.9677 36.3523 29.2505 37.1244 29.7807C38.4004 30.65 39.1648 32.093 39.1666 33.637V36.3036C39.1642 37.6086 38.4015 38.7924 37.2148 39.3341C36.9869 39.4419 36.7468 39.5211 36.4999 39.57V32.3037H35.1666V39.637H29.1666V40.9703H35.8333C36.5038 40.9745 37.1669 40.8292 37.7739 40.5448C39.4327 39.7846 40.4973 38.1284 40.4999 36.3036V33.637C40.4989 31.6529 39.5171 29.7977 37.877 28.6807Z" fill="#1B75E8"/>
<path d="M17.833 39.6362H23.1663V40.9695H17.833V39.6362Z" fill="#1B75E8"/>
</svg>
