<svg width="41" height="41" viewBox="0 0 41 41" fill="none" xmlns="http://www.w3.org/2000/svg">
<path d="M11.2003 26.1447C11.5738 25.9293 11.7017 25.4511 11.4863 25.0775C11.2705 24.7043 10.7926 24.5761 10.4191 24.7916C10.0455 25.0073 9.91734 25.4855 10.1331 25.8588C10.3486 26.2323 10.8268 26.3605 11.2003 26.1447Z" fill="#BB0064"/>
<path d="M7.99877 31.537L11.9331 38.3519C12.7821 39.824 14.6919 40.3691 16.2022 39.496C17.6966 38.6323 18.2103 36.7228 17.3457 35.2272L15.0019 31.1671L17.0317 29.9952C17.4052 29.7792 17.5334 29.3016 17.3176 28.928L16.3017 27.1684C16.4228 27.1449 17.2194 26.9886 31.2657 24.2332C33.0021 24.1389 34.0425 22.2398 33.1654 20.7215L30.569 16.2245L32.2282 13.7113C32.3912 13.4642 32.4009 13.1465 32.2529 12.8901L30.6904 10.1838C30.5424 9.9275 30.2613 9.77735 29.9668 9.79474L26.9612 9.9751L24.0788 4.98243C23.6613 4.25916 22.9133 3.82123 22.0784 3.81086C22.0683 3.81055 22.0585 3.81055 22.0485 3.81055C21.2416 3.81055 20.5091 4.21216 20.0752 4.89118L9.8695 17.8923L3.23467 21.7228C0.62511 23.2289 -0.278821 26.5766 1.23302 29.1932C2.61425 31.5858 5.52623 32.527 7.99877 31.537ZM15.9928 36.0087C16.4244 36.7552 16.1689 37.7104 15.4203 38.1428C14.6693 38.5771 13.7129 38.3103 13.2862 37.5709L9.37999 30.8042L12.0863 29.2417C16.6072 37.0732 15.9202 35.8833 15.9928 36.0087ZM14.2207 29.8136L13.4394 28.4605L14.7926 27.6792L15.5738 29.0324L14.2207 29.8136ZM29.5787 11.3832L30.6584 13.2533L29.6955 14.7114L27.8346 11.4878L29.5787 11.3832ZM21.3819 5.74781C21.5916 5.40479 21.9242 5.36939 22.0591 5.37305C22.1925 5.37458 22.5248 5.41608 22.7253 5.76337L31.8122 21.5028C32.1083 22.0152 31.7485 22.6594 31.1549 22.6741C31.0484 22.6765 30.9993 22.6957 30.7264 22.7467L21.1143 6.09784C21.316 5.83845 21.342 5.81342 21.3819 5.74781ZM20.0746 7.42231L29.1056 23.0647L15.4759 25.738L11.3316 18.56L20.0746 7.42231ZM2.58617 28.412C2.24315 27.8184 2.06188 27.1446 2.06188 26.4628C2.06188 25.0694 2.81078 23.7718 4.01592 23.076L10.1051 19.5603L14.0113 26.3261L7.92217 29.842C6.05663 30.9187 3.66313 30.2772 2.58617 28.412Z" fill="#BB0064"/>
<path d="M8.77995 26.6402C8.56419 26.2667 8.08629 26.1385 7.71275 26.3543L6.3596 27.1355C5.98668 27.351 5.50786 27.2225 5.2924 26.8496C5.07664 26.476 4.59874 26.3479 4.2252 26.5636C3.85167 26.7794 3.7235 27.2573 3.93925 27.6308C4.58226 28.7447 6.01659 29.1375 7.14085 28.4887L8.494 27.7074C8.86754 27.4917 8.99571 27.0141 8.77995 26.6402Z" fill="#BB0064"/>
<path d="M39.3388 5.48166L34.9855 7.90414C34.6086 8.1141 34.4728 8.58987 34.6828 8.96676C34.8921 9.34335 35.3676 9.47976 35.7454 9.2695L40.0984 6.84701C40.4756 6.63705 40.6111 6.16128 40.4011 5.78439C40.1915 5.40719 39.7157 5.27169 39.3388 5.48166Z" fill="#BB0064"/>
<path d="M38.8822 13.5728L35.8637 12.7641C35.4469 12.6524 35.0184 12.8996 34.9067 13.3165C34.795 13.7334 35.0425 14.1615 35.4594 14.2732L38.4782 15.0819C38.8975 15.1945 39.3238 14.9434 39.4349 14.5296C39.5466 14.1127 39.2991 13.6842 38.8822 13.5728Z" fill="#BB0064"/>
<path d="M31.2969 2.64317L30.4873 5.66197C30.3756 6.07884 30.6228 6.507 31.0396 6.619C31.4562 6.73039 31.8847 6.48381 31.9967 6.06663L32.806 3.04783C32.9177 2.63096 32.6705 2.2025 32.2536 2.0908C31.8371 1.97911 31.4086 2.2263 31.2969 2.64317Z" fill="#BB0064"/>
</svg>
