<svg width="41" height="41" viewBox="0 0 41 41" fill="none" xmlns="http://www.w3.org/2000/svg">
<path d="M35.435 20.6108C36.0513 19.8983 36.75 19.0899 36.75 18.0537C36.75 17.0174 36.0513 16.2095 35.4354 15.497C35.0654 15.0695 34.6833 14.6274 34.59 14.2779C34.4888 13.8983 34.6008 13.3049 34.7092 12.7308C34.8808 11.822 35.0758 10.7925 34.5746 9.92622C34.0667 9.04872 33.0688 8.70162 32.1879 8.39496C31.6433 8.20579 31.0804 8.00954 30.8121 7.74204C30.5442 7.47371 30.3483 6.91079 30.1592 6.36621C29.8529 5.48537 29.5058 4.48746 28.6275 3.97913C27.7612 3.47787 26.7308 3.67287 25.8229 3.84454C25.2488 3.95287 24.655 4.06454 24.2758 3.96329C23.9263 3.86997 23.4846 3.48787 23.0571 3.11871C22.3446 2.50246 21.5362 1.80371 20.5 1.80371C19.4637 1.80371 18.6558 2.50247 17.9433 3.1183C17.5158 3.4883 17.0737 3.87038 16.7242 3.96372C16.3442 4.0633 15.7512 3.95329 15.1771 3.84454C14.2687 3.67204 13.2387 3.47787 12.3725 3.97913C11.495 4.48705 11.1479 5.48496 10.8412 6.36579C10.6521 6.91037 10.4558 7.47329 10.1883 7.74162C9.92 8.00954 9.35708 8.20538 8.8125 8.39455C7.93167 8.7008 6.93375 9.04788 6.42542 9.92622C5.92458 10.792 6.11917 11.8224 6.29083 12.7308C6.39958 13.3049 6.51125 13.8983 6.40958 14.2779C6.31625 14.6274 5.93417 15.0691 5.565 15.4966C4.94875 16.2091 4.25 17.0174 4.25 18.0537C4.25 19.0899 4.94875 19.8979 5.56458 20.6104C5.93458 21.0379 6.31667 21.4799 6.41 21.8295C6.51125 22.2091 6.39917 22.8024 6.29083 23.3766C6.11917 24.2854 5.92417 25.3149 6.42542 26.1812C6.93333 27.0587 7.93125 27.4058 8.81208 27.7124C9.35667 27.9016 9.91958 28.0979 10.1879 28.3654C10.2204 28.3979 10.2517 28.4349 10.2821 28.4758L7.20542 38.2195C7.12583 38.4729 7.17083 38.7491 7.32792 38.9633C7.485 39.177 7.73417 39.3037 8 39.3037H15.5C15.8633 39.3037 16.1854 39.0683 16.2946 38.7216L18.0704 33.0983C18.7521 33.6849 19.5246 34.3037 20.5 34.3037C21.4758 34.3037 22.2479 33.6845 22.9296 33.0979L24.7054 38.7212C24.8146 39.0683 25.1362 39.3037 25.5 39.3037H33C33.2658 39.3037 33.515 39.177 33.6721 38.9633C33.8292 38.7487 33.8742 38.4729 33.7946 38.2195L30.7179 28.4758C30.7483 28.4354 30.7796 28.3983 30.8117 28.3658C31.08 28.0979 31.6429 27.902 32.1875 27.7129C33.0683 27.4066 34.0662 27.0595 34.5746 26.1812C35.0754 25.3154 34.8808 24.2849 34.7092 23.3766C34.6004 22.8024 34.4888 22.2091 34.5904 21.8295C34.6833 21.4799 35.0654 21.0379 35.435 20.6108ZM14.8892 37.637H9.13708L11.28 30.8512C11.5283 31.3633 11.8583 31.8304 12.3725 32.1283C13.2387 32.6295 14.2692 32.4341 15.1771 32.2629C15.7079 32.1624 16.2475 32.0666 16.6275 32.132L14.8892 37.637ZM26.1108 37.637L24.3725 32.1316C24.7521 32.067 25.2917 32.162 25.8229 32.2624C26.7313 32.4345 27.7612 32.6291 28.6275 32.1279C29.1421 31.8304 29.4717 31.3629 29.72 30.8504L31.8629 37.637H26.1108ZM34.1742 19.5208C33.6812 20.0904 33.1721 20.6795 32.98 21.3991C32.7804 22.1454 32.9283 22.9287 33.0712 23.6858C33.195 24.3399 33.3229 25.0166 33.1317 25.3466C32.9338 25.6883 32.2762 25.9174 31.6404 26.1383C30.9183 26.3895 30.1717 26.6491 29.6337 27.1874C29.0954 27.7254 28.8358 28.472 28.5846 29.1941C28.3633 29.8299 28.1346 30.4874 27.7929 30.6854C27.4629 30.8762 26.7862 30.7487 26.1329 30.6249C25.3746 30.4812 24.5917 30.3337 23.8458 30.5329C23.1258 30.7254 22.5367 31.2349 21.9671 31.7279C21.4496 32.1754 20.9158 32.637 20.5 32.637C20.0842 32.637 19.55 32.1749 19.0329 31.7279C18.4633 31.2349 17.8742 30.7258 17.1546 30.5337C16.8942 30.4637 16.6292 30.4366 16.3629 30.4366C15.8654 30.4366 15.3613 30.532 14.8679 30.6249C14.2129 30.7487 13.5367 30.8762 13.2071 30.6854C12.8654 30.4874 12.6362 29.8299 12.4154 29.1941C12.1642 28.472 11.9046 27.7254 11.3663 27.1874C10.8283 26.6491 10.0817 26.3895 9.35958 26.1383C8.72375 25.917 8.06625 25.6883 7.86833 25.3466C7.67708 25.0166 7.80542 24.3404 7.92875 23.6866C8.07208 22.9291 8.22 22.1458 8.02083 21.3995C7.82833 20.6795 7.31875 20.0904 6.82583 19.5208C6.37833 19.0033 5.91667 18.4695 5.91667 18.0537C5.91667 17.6379 6.37875 17.1037 6.82583 16.5866C7.31875 16.017 7.82792 15.4279 8.02 14.7083C8.21958 13.962 8.07167 13.1787 7.92875 12.4216C7.805 11.7674 7.67708 11.0908 7.86833 10.7608C8.06625 10.4191 8.72375 10.19 9.35958 9.96912C10.0817 9.71788 10.8283 9.45829 11.3663 8.91996C11.9046 8.38204 12.1642 7.63538 12.4154 6.91329C12.6367 6.27746 12.8654 5.61996 13.2071 5.42204C13.5363 5.23079 14.2133 5.35871 14.8671 5.48246C15.625 5.62621 16.4083 5.77372 17.1542 5.57454C17.8742 5.38204 18.4633 4.87246 19.0329 4.37954C19.5504 3.93204 20.0842 3.47037 20.5 3.47037C20.9158 3.47037 21.45 3.93246 21.9671 4.37954C22.5367 4.87246 23.1258 5.38162 23.8454 5.57371C24.5921 5.77371 25.375 5.62579 26.1321 5.48246C26.7862 5.35829 27.4629 5.23079 27.7929 5.42204C28.1346 5.61996 28.3637 6.27746 28.5846 6.91329C28.8358 7.63538 29.0954 8.38204 29.6337 8.91996C30.1717 9.45829 30.9183 9.71788 31.6404 9.96912C32.2762 10.1904 32.9338 10.4191 33.1317 10.7608C33.3229 11.0908 33.1946 11.767 33.0712 12.4208C32.9279 13.1783 32.78 13.9616 32.9792 14.7079C33.1717 15.4279 33.6812 16.017 34.1742 16.5866C34.6217 17.1041 35.0833 17.6379 35.0833 18.0537C35.0833 18.4695 34.6213 19.0037 34.1742 19.5208ZM20.5 7.63704C14.7562 7.63704 10.0833 12.3099 10.0833 18.0537C10.0833 23.7974 14.7562 28.4704 20.5 28.4704C26.2437 28.4704 30.9167 23.7974 30.9167 18.0537C30.9167 12.3099 26.2437 7.63704 20.5 7.63704ZM20.5 26.8037C15.6754 26.8037 11.75 22.8783 11.75 18.0537C11.75 13.2291 15.6754 9.30371 20.5 9.30371C25.3246 9.30371 29.25 13.2291 29.25 18.0537C29.25 22.8783 25.3246 26.8037 20.5 26.8037ZM25.6258 15.6324L22.6108 15.1724L21.2546 12.2829C21.1171 11.9904 20.8229 11.8037 20.5 11.8037C20.1771 11.8037 19.8829 11.9904 19.7454 12.2829L18.3892 15.1724L15.3742 15.6324C15.0654 15.6795 14.8092 15.8958 14.7096 16.192C14.61 16.4883 14.685 16.8149 14.9033 17.0383L17.0854 19.2749L16.3542 22.4495C16.2812 22.7658 16.3983 23.0949 16.6542 23.2941C16.91 23.4937 17.2579 23.5258 17.5467 23.3783L20.5 21.8649L23.4533 23.3787C23.5733 23.4404 23.7033 23.4704 23.8333 23.4704C24.0154 23.4704 24.1962 23.4108 24.3454 23.2945C24.6008 23.0949 24.7183 22.7658 24.6454 22.4499L23.9142 19.2754L26.0962 17.0387C26.3142 16.8154 26.3892 16.4887 26.29 16.1924C26.1908 15.8962 25.9346 15.6799 25.6258 15.6324ZM22.4033 18.437C22.205 18.6399 22.1242 18.9299 22.1875 19.2062L22.6187 21.0787L20.8796 20.187C20.7604 20.1262 20.6296 20.0954 20.4996 20.0954C20.3692 20.0954 20.2388 20.1258 20.1196 20.187L18.3804 21.0787L18.8117 19.2062C18.875 18.9299 18.7942 18.6404 18.5958 18.437L17.2283 17.0358L19.08 16.7529C19.3546 16.7104 19.5908 16.5345 19.7088 16.2829L20.5 14.5983L21.2904 16.2829C21.4083 16.5345 21.6446 16.7104 21.9192 16.7529L23.7708 17.0358L22.4033 18.437Z" fill="#0011BB"/>
</svg>
