<svg width="41" height="41" viewBox="0 0 41 41" fill="none" xmlns="http://www.w3.org/2000/svg">
<path d="M40.1505 30.0739L36.0517 28.0245L33.4432 21.239C33.4124 21.1588 33.3655 21.0858 33.3053 21.0245C33.2451 20.9632 33.1729 20.915 33.0933 20.8829L16.9075 14.4129C16.7943 14.3679 16.6705 14.3569 16.5511 14.3813C16.4318 14.4057 16.3222 14.4645 16.2358 14.5504L14.0771 16.7091C13.9923 16.7956 13.9345 16.9048 13.9107 17.0235C13.8868 17.1422 13.898 17.2652 13.9428 17.3777L20.4127 33.5634C20.4448 33.6431 20.493 33.7153 20.5543 33.7755C20.6156 33.8357 20.6886 33.8826 20.7688 33.9133L27.5543 36.5219L29.6037 40.6207C29.6468 40.7111 29.7111 40.7898 29.791 40.8501C29.8709 40.9105 29.9642 40.9507 30.0629 40.9675C30.0962 40.9706 30.1296 40.9706 30.1629 40.9675C30.3283 40.9668 30.4867 40.9005 30.6034 40.7832L40.313 31.0736C40.3844 31.0046 40.4384 30.9196 40.4705 30.8256C40.5025 30.7316 40.5117 30.6314 40.4973 30.5331C40.4805 30.4344 40.4403 30.3411 40.3799 30.2612C40.3196 30.1813 40.2409 30.117 40.1505 30.0739ZM15.2517 17.2965L15.5985 16.9528L23.6555 25.0098C23.1245 25.7622 22.8952 26.6864 23.0128 27.5998C23.1305 28.5131 23.5866 29.3491 24.291 29.9423C24.9953 30.5355 25.8967 30.8429 26.8167 30.8036C27.7368 30.7642 28.6086 30.3811 29.2598 29.7299C29.9109 29.0788 30.2941 28.207 30.3334 27.2869C30.3727 26.3669 30.0654 25.4655 29.4721 24.7612C28.8789 24.0568 28.0429 23.6007 27.1296 23.483C26.2162 23.3653 25.292 23.5947 24.5396 24.1257L16.4826 16.0687L16.8263 15.7219L32.3747 21.9419L34.8271 28.3213L27.8511 35.2973L21.4717 32.8449L15.2517 17.2965ZM26.6577 24.7005C27.2192 24.7013 27.7631 24.8968 28.1967 25.2537C28.6303 25.6105 28.9267 26.1067 29.0355 26.6576C29.1443 27.2085 29.0587 27.7801 28.7933 28.275C28.528 28.7699 28.0992 29.1574 27.5802 29.3717C27.0611 29.5859 26.4838 29.6136 25.9466 29.4499C25.4095 29.2862 24.9456 28.9414 24.6342 28.4741C24.3228 28.0069 24.183 27.4461 24.2386 26.8873C24.2943 26.3285 24.542 25.8063 24.9395 25.4096C25.3956 24.9549 26.0136 24.6999 26.6577 24.7005ZM30.3347 39.2867L28.7727 36.1627L35.6862 29.2491L38.8103 30.8111L30.3347 39.2867Z" fill="#4500D0"/>
<path d="M12.4588 34.4074C12.3393 34.2944 12.1811 34.2315 12.0167 34.2315C11.8523 34.2315 11.6942 34.2944 11.5747 34.4074L10.7812 35.2009C8.6636 32.3269 7.49542 28.8639 7.43942 25.2945C7.38342 21.7251 8.4424 18.2271 10.4688 15.2881C11.0758 15.6222 11.7749 15.7505 12.461 15.6538C13.1472 15.5572 13.7836 15.2408 14.2748 14.752C14.766 14.2633 15.0856 13.6285 15.1857 12.9429C15.2858 12.2572 15.1609 11.5575 14.8299 10.9488C17.7689 8.92244 21.2669 7.86346 24.8363 7.91947C28.4057 7.97547 31.8687 9.14365 34.7427 11.2612L33.9367 12.0453C33.8205 12.1625 33.7554 12.3208 33.7555 12.4858C33.755 12.568 33.7708 12.6496 33.8019 12.7257C33.833 12.8018 33.8788 12.871 33.9367 12.9294L36.6921 15.663C36.8092 15.7794 36.9676 15.8447 37.1326 15.8447C37.2977 15.8447 37.456 15.7794 37.5731 15.663L40.3129 12.9232C40.371 12.8652 40.4171 12.7962 40.4485 12.7204C40.48 12.6445 40.4962 12.5632 40.4962 12.4811C40.4962 12.399 40.48 12.3177 40.4485 12.2419C40.4171 12.166 40.371 12.0971 40.3129 12.0391L37.5731 9.29928C37.456 9.18291 37.2977 9.11759 37.1326 9.11759C36.9676 9.11759 36.8092 9.18291 36.6921 9.29928L35.6331 10.3521C33.0229 8.38798 29.9371 7.15399 26.6923 6.7768C23.4476 6.39962 20.1609 6.89287 17.1699 8.20586L20.7719 4.61319C21.1803 4.80834 21.6447 4.85252 22.0826 4.73787C22.5205 4.62323 22.9036 4.35719 23.164 3.98694C23.4244 3.61669 23.5452 3.16617 23.505 2.7153C23.4649 2.26444 23.2663 1.84238 22.9445 1.524C22.6228 1.20562 22.1987 1.0115 21.7474 0.976088C21.2961 0.940672 20.8469 1.06625 20.4794 1.33053C20.1119 1.59482 19.8499 1.98073 19.7399 2.41981C19.6299 2.85888 19.679 3.32274 19.8784 3.72908L13.799 9.81788C13.1817 9.40382 12.4399 9.21691 11.7001 9.2891C10.9603 9.36128 10.2686 9.68808 9.74299 10.2137C9.21741 10.7392 8.89062 11.431 8.81844 12.1707C8.74625 12.9105 8.93315 13.6524 9.34721 14.2697L3.25842 20.3491C2.85049 20.1503 2.38529 20.1026 1.9455 20.2144C1.50571 20.3262 1.1198 20.5903 0.856358 20.9598C0.592911 21.3293 0.468987 21.7802 0.506605 22.2324C0.544224 22.6847 0.740949 23.1089 1.06182 23.4298C1.3827 23.7507 1.80694 23.9474 2.25916 23.985C2.71138 24.0226 3.1623 23.8987 3.53178 23.6352C3.90126 23.3718 4.16538 22.9859 4.2772 22.5461C4.38902 22.1063 4.3413 21.6411 4.14253 21.2332L7.74457 17.6405C6.43025 20.6308 5.93546 23.917 6.31099 27.1617C6.68652 30.4064 7.91884 33.4927 9.88143 36.1037L8.8255 37.1628C8.70912 37.2798 8.6438 37.4382 8.6438 37.6033C8.6438 37.7683 8.70912 37.9267 8.8255 38.0438L11.5653 40.7836C11.6819 40.9009 11.8403 40.9672 12.0058 40.9679C12.0882 40.9679 12.1699 40.9517 12.246 40.9201C12.3222 40.8884 12.3913 40.842 12.4494 40.7836L15.1923 38.0438C15.3087 37.9267 15.374 37.7683 15.374 37.6033C15.374 37.4382 15.3087 37.2798 15.1923 37.1628L12.4588 34.4074ZM37.1389 10.6176L38.9946 12.4733L37.1389 14.329L35.2832 12.4733L37.1389 10.6176ZM21.128 2.42635C21.2209 2.33274 21.3395 2.26883 21.4687 2.24271C21.5979 2.2166 21.732 2.22946 21.8539 2.27967C21.9758 2.32987 22.08 2.41516 22.1534 2.5247C22.2267 2.63425 22.2659 2.76312 22.2659 2.89495C22.2659 3.02679 22.2267 3.15566 22.1534 3.26521C22.08 3.37475 21.9758 3.46004 21.8539 3.51024C21.732 3.56045 21.5979 3.57331 21.4687 3.54719C21.3395 3.52109 21.2209 3.45717 21.128 3.36356C21.0665 3.30205 21.0176 3.22901 20.9843 3.1486C20.9509 3.06819 20.9338 2.982 20.9338 2.89495C20.9338 2.80791 20.9509 2.72172 20.9843 2.64131C21.0176 2.5609 21.0665 2.48786 21.128 2.42635ZM10.6312 11.1019C10.8126 10.9196 11.0283 10.7749 11.2658 10.6762C11.5033 10.5775 11.758 10.5267 12.0152 10.5267C12.2724 10.5267 12.527 10.5775 12.7645 10.6762C13.002 10.7749 13.2177 10.9196 13.3991 11.1019C13.6734 11.3757 13.8602 11.7247 13.9361 12.1047C14.0119 12.4848 13.9733 12.8788 13.8251 13.2369C13.677 13.595 13.4259 13.9011 13.1037 14.1165C12.7815 14.3319 12.4027 14.4468 12.0152 14.4468C11.6276 14.4468 11.2488 14.3319 10.9266 14.1165C10.6044 13.9011 10.3533 13.595 10.2052 13.2369C10.057 12.8788 10.0184 12.4848 10.0942 12.1047C10.1701 11.7247 10.3569 11.3757 10.6312 11.1019ZM2.89603 22.5359C2.76847 22.6423 2.60574 22.6971 2.43982 22.6896C2.27389 22.6821 2.11677 22.6128 1.99933 22.4954C1.88188 22.378 1.8126 22.2208 1.8051 22.0549C1.79761 21.889 1.85243 21.7263 1.95881 21.5987C2.08384 21.4758 2.25212 21.407 2.42742 21.407C2.60272 21.407 2.771 21.4758 2.89603 21.5987C2.95761 21.6602 3.00647 21.7333 3.03981 21.8137C3.07314 21.8941 3.0903 21.9803 3.0903 22.0673C3.0903 22.1544 3.07314 22.2405 3.03981 22.321C3.00647 22.4014 2.95761 22.4744 2.89603 22.5359ZM12.0152 39.4465L10.1595 37.5908L12.0152 35.7351L13.8709 37.5908L12.0152 39.4465Z" fill="#4500D0"/>
</svg>
