<svg width="43" height="42" viewBox="0 0 43 42" fill="none" xmlns="http://www.w3.org/2000/svg">
<path d="M40.0688 31.8545H2.56936C1.49768 31.8545 0.632812 30.9897 0.632812 29.918V3.2388C0.632812 2.17651 1.50708 1.30225 2.56936 1.30225H40.0688C41.1404 1.30225 42.0053 2.16712 42.0053 3.2388V29.918C42.0053 30.9897 41.1404 31.8545 40.0688 31.8545ZM2.56936 2.24232C2.02412 2.24232 1.57288 2.69356 1.57288 3.2388V29.918C1.57288 30.4726 2.02412 30.9145 2.56936 30.9145H40.0688C40.6234 30.9145 41.0652 30.4632 41.0652 29.918V3.2388C41.0652 2.69356 40.614 2.24232 40.0688 2.24232H2.56936Z" fill="#D16900"/>
<path d="M39.016 29.3353H3.62238C3.35916 29.3353 3.15234 29.1285 3.15234 28.8652V4.29182C3.15234 4.0286 3.35916 3.82178 3.62238 3.82178H39.0066C39.2699 3.82178 39.4767 4.0286 39.4767 4.29182V28.8652C39.4861 29.1285 39.2699 29.3353 39.016 29.3353ZM4.09241 28.3952H38.5366V4.76185H4.09241V28.3952Z" fill="#D16900"/>
<path d="M16.0688 38.5949C15.9466 38.5949 15.815 38.5479 15.721 38.4445C15.5424 38.2565 15.5518 37.9557 15.7492 37.7771C18.7668 34.9756 17.5165 31.6948 17.4601 31.5538C17.3661 31.3094 17.4789 31.0368 17.7234 30.9427C17.9678 30.8487 18.2404 30.9615 18.3344 31.206C18.3532 31.2436 18.7386 32.2306 18.6916 33.6125C18.6446 34.891 18.2122 36.7618 16.3885 38.4633C16.2945 38.5573 16.1816 38.5949 16.0688 38.5949Z" fill="#D16900"/>
<path d="M26.5701 38.5952C26.4573 38.5952 26.3445 38.5576 26.2505 38.473C24.4268 36.7808 23.9943 34.9007 23.9473 33.6222C23.9003 32.2403 24.2858 31.2532 24.3046 31.2156C24.3986 30.9712 24.6712 30.8584 24.9156 30.9524C25.16 31.0464 25.2728 31.319 25.1788 31.5635C25.1224 31.7045 23.8815 34.9853 26.8898 37.7867C27.0778 37.9653 27.0872 38.2568 26.918 38.4542C26.8239 38.5482 26.7017 38.5952 26.5701 38.5952Z" fill="#D16900"/>
<path d="M30.7533 41.3013H11.8861C11.6228 41.3013 11.416 41.0945 11.416 40.8312V39.4775C11.416 38.4717 12.2339 37.6538 13.2398 37.6538H29.3996C30.4054 37.6538 31.2233 38.4717 31.2233 39.4775V40.8312C31.2233 41.0851 31.0165 41.3013 30.7533 41.3013ZM12.3561 40.3612H30.2832V39.4775C30.2832 38.9887 29.8884 38.5939 29.3996 38.5939H13.2398C12.7509 38.5939 12.3561 38.9887 12.3561 39.4775V40.3612Z" fill="#D16900"/>
<path d="M12.7696 23.1965C12.685 23.1965 12.6004 23.1777 12.5252 23.1307L7.11038 19.8875C6.96937 19.8029 6.88477 19.6525 6.88477 19.4833V13.3446C6.88477 13.1754 6.97877 13.0156 7.11978 12.931C7.26079 12.8464 7.44881 12.8464 7.58982 12.9404L13.0046 16.1836C13.1456 16.2682 13.2302 16.4186 13.2302 16.5878V22.7265C13.2302 22.8957 13.1362 23.0555 12.9952 23.1401C12.9294 23.1777 12.8448 23.1965 12.7696 23.1965ZM7.82484 19.22L12.2996 21.8992V16.8511L7.82484 14.1719V19.22Z" fill="#D16900"/>
<path d="M12.7689 23.1973C12.6843 23.1973 12.6091 23.1785 12.5338 23.1409C12.3834 23.0563 12.2988 22.9059 12.2988 22.7273V16.5886C12.2988 16.4194 12.3834 16.269 12.5244 16.1844L17.9393 12.9411C18.0803 12.8565 18.2683 12.8565 18.4093 12.9317C18.5597 13.0163 18.6443 13.1761 18.6443 13.3454V19.484C18.6443 19.6532 18.5597 19.8036 18.4187 19.8883L13.0039 23.1315C12.9381 23.1785 12.8535 23.1973 12.7689 23.1973ZM13.2389 16.8518V21.9L17.7136 19.2208V14.1726L13.2389 16.8518Z" fill="#D16900"/>
<path d="M7.35439 13.8147C7.18517 13.8147 7.02536 13.7301 6.94076 13.5703C6.81855 13.3447 6.90315 13.0533 7.12877 12.9311L12.5436 10.0169C12.6846 9.94165 12.8538 9.94165 12.9854 10.0169L18.4002 12.9311C18.6258 13.0533 18.7104 13.3353 18.5882 13.5703C18.466 13.8053 18.184 13.8805 17.949 13.7583L12.7598 10.9663L7.5706 13.7583C7.5048 13.7959 7.42959 13.8147 7.35439 13.8147Z" fill="#D16900"/>
<path d="M16.8305 8.60755H8.70832C8.4451 8.60755 8.23828 8.40073 8.23828 8.13751C8.23828 7.87429 8.4451 7.66748 8.70832 7.66748H16.8305C17.0937 7.66748 17.3006 7.87429 17.3006 8.13751C17.3006 8.40073 17.0937 8.60755 16.8305 8.60755Z" fill="#D16900"/>
<path d="M15.4669 9.97015C15.3447 9.97015 15.2225 9.92315 15.1379 9.82914C14.9593 9.65053 14.9593 9.34971 15.1379 9.16169L16.1719 8.12761L15.1379 7.09354C14.9593 6.91492 14.9593 6.6141 15.1379 6.42609C15.3165 6.23807 15.6173 6.24747 15.8053 6.42609L17.159 7.80799C17.3376 7.9866 17.3376 8.28743 17.159 8.47544L15.7959 9.83854C15.7019 9.92315 15.5891 9.97015 15.4669 9.97015Z" fill="#D16900"/>
<path d="M10.0722 9.97087C9.94997 9.97087 9.82776 9.92386 9.74316 9.82986L8.38005 8.46675C8.20144 8.28814 8.20144 7.98732 8.38005 7.7993L9.74316 6.4362C9.92177 6.25759 10.2226 6.25759 10.4106 6.4362C10.5892 6.61481 10.5892 6.91564 10.4106 7.10365L9.37653 8.13773L10.4106 9.17181C10.5892 9.35042 10.5892 9.65124 10.4106 9.83926C10.3166 9.92386 10.1944 9.97087 10.0722 9.97087Z" fill="#D16900"/>
<path d="M16.8305 25.5002H8.70832C8.4451 25.5002 8.23828 25.2934 8.23828 25.0302C8.23828 24.767 8.4451 24.5601 8.70832 24.5601H16.8305C17.0937 24.5601 17.3006 24.767 17.3006 25.0302C17.3006 25.2934 17.0937 25.5002 16.8305 25.5002Z" fill="#D16900"/>
<path d="M15.4669 26.8623C15.3447 26.8623 15.2225 26.8153 15.1379 26.7213C14.9593 26.5333 14.9593 26.2419 15.1379 26.0538L16.1719 25.0198L15.1379 23.9857C14.9593 23.7977 14.9593 23.5063 15.1379 23.3182C15.3165 23.1302 15.6173 23.1302 15.8053 23.3182L17.1684 24.6813C17.347 24.8694 17.347 25.1608 17.1684 25.3488L15.8053 26.7119C15.7019 26.8153 15.5891 26.8623 15.4669 26.8623Z" fill="#D16900"/>
<path d="M10.0722 26.8627C9.94997 26.8627 9.82776 26.8157 9.74316 26.7217L8.38005 25.3586C8.20144 25.1705 8.20144 24.8791 8.38005 24.6911L9.74316 23.328C9.92177 23.14 10.2226 23.14 10.4106 23.328C10.5892 23.516 10.5892 23.8074 10.4106 23.9955L9.37653 25.0295L10.4106 26.0636C10.5892 26.2516 10.5892 26.543 10.4106 26.7311C10.3166 26.8157 10.1944 26.8627 10.0722 26.8627Z" fill="#D16900"/>
<path d="M23.5507 26.8622H21.9808C21.2945 26.8622 20.7305 26.3076 20.7305 25.6213V10.8152C20.7305 10.552 20.9373 10.3452 21.2005 10.3452H24.3215C24.5848 10.3452 24.7916 10.552 24.7916 10.8152V25.6119C24.801 26.2982 24.2369 26.8622 23.5507 26.8622ZM21.6799 11.2853V25.6119C21.6799 25.7812 21.821 25.9128 21.9902 25.9128H23.5507C23.7199 25.9128 23.8515 25.7718 23.8515 25.6119V11.2853H21.6799Z" fill="#D16900"/>
<path d="M24.3309 11.2866C24.1429 11.2866 23.9643 11.1737 23.8891 10.9857L22.7704 8.08094L21.6517 10.9857C21.5577 11.2302 21.2851 11.3524 21.0406 11.2584C20.7962 11.1643 20.674 10.8917 20.768 10.6473L22.3285 6.60503C22.3943 6.42641 22.573 6.3042 22.7704 6.3042C22.9678 6.3042 23.137 6.42641 23.2122 6.60503L24.7727 10.6473C24.8667 10.8917 24.7445 11.1643 24.5001 11.2584C24.4437 11.2772 24.3873 11.2866 24.3309 11.2866Z" fill="#D16900"/>
<path d="M24.3313 24.09H21.2103C20.947 24.09 20.7402 23.8831 20.7402 23.6199C20.7402 23.3567 20.947 23.1499 21.2103 23.1499H24.3313C24.5945 23.1499 24.8013 23.3567 24.8013 23.6199C24.8013 23.8831 24.5851 24.09 24.3313 24.09Z" fill="#D16900"/>
<path d="M35.2841 8.47474H27.1243C26.8611 8.47474 26.6543 8.26793 26.6543 8.00471C26.6543 7.74149 26.8611 7.53467 27.1243 7.53467H35.2841C35.5474 7.53467 35.7542 7.74149 35.7542 8.00471C35.7542 8.26793 35.5474 8.47474 35.2841 8.47474Z" fill="#D16900"/>
<path d="M35.2841 11.3321H27.1243C26.8611 11.3321 26.6543 11.1253 26.6543 10.8621C26.6543 10.5989 26.8611 10.3921 27.1243 10.3921H35.2841C35.5474 10.3921 35.7542 10.5989 35.7542 10.8621C35.7542 11.1253 35.5474 11.3321 35.2841 11.3321Z" fill="#D16900"/>
<path d="M35.2841 14.1896H27.1243C26.8611 14.1896 26.6543 13.9828 26.6543 13.7195C26.6543 13.4563 26.8611 13.2495 27.1243 13.2495H35.2841C35.5474 13.2495 35.7542 13.4563 35.7542 13.7195C35.7542 13.9828 35.5474 14.1896 35.2841 14.1896Z" fill="#D16900"/>
<path d="M35.2841 17.0489H27.1243C26.8611 17.0489 26.6543 16.8421 26.6543 16.5789C26.6543 16.3157 26.8611 16.1089 27.1243 16.1089H35.2841C35.5474 16.1089 35.7542 16.3157 35.7542 16.5789C35.7542 16.8421 35.5474 17.0489 35.2841 17.0489Z" fill="#D16900"/>
<path d="M35.2841 19.9064H27.1243C26.8611 19.9064 26.6543 19.6995 26.6543 19.4363C26.6543 19.1731 26.8611 18.9663 27.1243 18.9663H35.2841C35.5474 18.9663 35.7542 19.1731 35.7542 19.4363C35.7542 19.6995 35.5474 19.9064 35.2841 19.9064Z" fill="#D16900"/>
<path d="M35.2841 22.7638H27.1243C26.8611 22.7638 26.6543 22.557 26.6543 22.2938C26.6543 22.0305 26.8611 21.8237 27.1243 21.8237H35.2841C35.5474 21.8237 35.7542 22.0305 35.7542 22.2938C35.7542 22.557 35.5474 22.7638 35.2841 22.7638Z" fill="#D16900"/>
<path d="M35.2841 25.6213H27.1243C26.8611 25.6213 26.6543 25.4145 26.6543 25.1513C26.6543 24.8881 26.8611 24.6812 27.1243 24.6812H35.2841C35.5474 24.6812 35.7542 24.8881 35.7542 25.1513C35.7542 25.4145 35.5474 25.6213 35.2841 25.6213Z" fill="#D16900"/>
</svg>
