<svg width="39" height="41" viewBox="0 0 39 41" fill="none" xmlns="http://www.w3.org/2000/svg">
<path d="M34.7 7.06121C35.494 7.06121 36.1364 6.41878 36.1364 5.62485C36.1364 4.83091 35.494 4.18848 34.7 4.18848C33.9061 4.18848 33.2637 4.83091 33.2637 5.62485C33.2637 6.41878 33.9122 7.06121 34.7 7.06121ZM34.7 5.21272C34.9303 5.21272 35.1182 5.4006 35.1182 5.63091C35.1182 5.86121 34.9303 6.04909 34.7 6.04909C34.4637 6.04909 34.2819 5.86727 34.2819 5.63091C34.2819 5.39454 34.4697 5.21272 34.7 5.21272Z" fill="#F2A700"/>
<path d="M36.2942 1.86719H6.76689C5.64568 1.86719 4.73053 2.78233 4.73053 3.90355V7.01264H2.70629C1.58507 7.01264 0.669922 7.92779 0.669922 9.049V34.5823C0.669922 35.7035 1.58507 36.6187 2.70629 36.6187H16.2396V39.5641C16.2396 39.8429 16.4699 40.0732 16.7487 40.0732H26.3123C26.5911 40.0732 26.8214 39.8429 26.8214 39.5641V36.6187H32.2336C33.3548 36.6187 34.2699 35.7035 34.2699 34.5823V31.4732H36.2942C37.4154 31.4732 38.3305 30.5581 38.3305 29.4369V3.90355C38.3305 2.78233 37.4154 1.86719 36.2942 1.86719ZM5.74871 3.90355C5.74871 3.33991 6.20932 2.88536 6.76689 2.88536H36.2942C36.8578 2.88536 37.3123 3.34597 37.3123 3.90355V8.37021H17.9911L15.7184 6.01264C15.5426 5.83082 15.3002 5.72779 15.0517 5.72779H10.0457C9.53659 5.72779 9.11841 6.14597 9.11841 6.65506V8.37021H5.74871V3.90355ZM2.70629 35.6066C2.14265 35.6066 1.6881 35.146 1.6881 34.5884V9.049C1.6881 8.48536 2.14871 8.03082 2.70629 8.03082H4.73053V29.4429C4.73053 30.5641 5.64568 31.4793 6.76689 31.4793H17.8214C18.0214 31.8672 18.1123 32.3035 18.076 32.752H17.2881C16.7063 32.752 16.2396 33.2247 16.2396 33.8005V35.6066H2.70629ZM21.0275 24.946C21.1305 24.7641 21.3184 24.649 21.5305 24.649C21.8457 24.649 22.1002 24.9035 22.1002 25.2187C22.1002 25.4247 21.9911 25.6126 21.8154 25.7157C21.6214 25.8308 21.3911 25.8187 21.1548 25.6854C21.1245 25.6672 21.0942 25.6429 21.082 25.6126C20.8881 25.3035 20.9669 25.0611 21.0275 24.946ZM21.0214 23.7278C20.6517 23.8551 20.3366 24.1035 20.1427 24.4551C19.8517 24.9763 19.8881 25.6126 20.2275 26.1581C20.3366 26.3278 20.482 26.4672 20.6578 26.5702C20.9366 26.7278 21.2396 26.8126 21.5366 26.8126C21.8154 26.8126 22.0881 26.7399 22.3305 26.6005C22.8154 26.3157 23.1184 25.7884 23.1184 25.2247C23.1184 24.5278 22.6639 23.9399 22.0396 23.7278V21.1096L26.5426 29.2369C26.5366 29.2429 26.5305 29.2551 26.5123 29.2611C24.9184 29.6732 23.876 31.1641 23.9608 32.752H19.1063C19.1972 31.1581 18.1487 29.6672 16.5245 29.2126L21.0214 21.1096V23.7278ZM25.8033 39.0551H17.2578L17.2881 33.7641H25.773C25.7911 33.7641 25.8033 33.7763 25.8033 33.7944V39.0551ZM33.2517 34.5823C33.2517 35.146 32.7911 35.6005 32.2336 35.6005H26.8214V33.7944C26.8214 33.2126 26.3487 32.746 25.773 32.746H24.9851C24.9487 32.2975 25.0457 31.8611 25.2396 31.4732H33.2517V34.5823ZM36.2942 30.4611H26.2275C26.3911 30.3702 26.5669 30.2914 26.7608 30.2429C27.082 30.1581 27.3426 29.9338 27.476 29.6308C27.6033 29.3338 27.5851 29.0005 27.4275 28.7157L22.2154 19.3278C22.082 19.0793 21.8214 18.9217 21.5366 18.9217C21.2457 18.9278 20.9851 19.0732 20.8457 19.3217L15.6275 28.7157C15.4699 29.0005 15.4578 29.3399 15.5851 29.6369C15.7123 29.9399 15.973 30.1581 16.2942 30.2429C16.4881 30.2914 16.6578 30.3702 16.8275 30.4611H6.76689C6.20326 30.4611 5.74871 30.0005 5.74871 29.4429V9.38839H9.20326C9.71235 9.38839 10.1305 8.97021 10.1305 8.46112V6.74597H15.0093L17.282 9.10355C17.4578 9.28537 17.7002 9.38839 17.9487 9.38839H37.3123V29.4369C37.3123 30.0005 36.8578 30.4611 36.2942 30.4611Z" fill="#F2A700"/>
<path d="M31.2337 7.06121C32.0277 7.06121 32.6701 6.41878 32.6701 5.62485C32.6701 4.83091 32.0277 4.18848 31.2337 4.18848C30.4398 4.18848 29.7974 4.83091 29.7974 5.62485C29.7974 6.41878 30.4398 7.06121 31.2337 7.06121ZM31.2337 5.21272C31.464 5.21272 31.6519 5.4006 31.6519 5.63091C31.6519 5.86121 31.464 6.04909 31.2337 6.04909C30.9974 6.04909 30.8155 5.86727 30.8155 5.63091C30.8155 5.39454 31.0034 5.21272 31.2337 5.21272Z" fill="#F2A700"/>
<path d="M27.7611 7.06121C28.555 7.06121 29.1974 6.41878 29.1974 5.62485C29.1974 4.83091 28.555 4.18848 27.7611 4.18848C26.9671 4.18848 26.3247 4.83091 26.3247 5.62485C26.3247 6.41878 26.9671 7.06121 27.7611 7.06121ZM27.7611 5.21272C27.9914 5.21272 28.1793 5.4006 28.1793 5.63091C28.1793 5.86121 27.9914 6.04909 27.7611 6.04909C27.5247 6.04909 27.3429 5.86727 27.3429 5.63091C27.3429 5.39454 27.5308 5.21272 27.7611 5.21272Z" fill="#F2A700"/>
<path d="M31.3424 13.8245C31.0455 14.1215 30.8576 14.4972 30.7849 14.8972H23.6636V14.0972C23.6636 13.5518 23.2212 13.1094 22.6758 13.1094H20.3788C19.8333 13.1094 19.3909 13.5518 19.3909 14.0972V14.8972H12.2758C12.2091 14.5033 12.0212 14.1275 11.7182 13.8185C10.9485 13.0609 9.63333 13.073 8.88181 13.8245C8.5 14.2063 8.29395 14.7094 8.29395 15.2427C8.29395 15.7821 8.50606 16.2912 8.88181 16.6609C9.26363 17.0548 9.77272 17.2548 10.3 17.2548C10.6333 17.2548 10.9727 17.176 11.2939 17.0124C11.6394 16.8366 11.9242 16.5457 12.0939 16.1881C12.1364 16.0972 12.1727 16.0063 12.203 15.9154H17.1424C14.4576 17.2245 12.4333 19.6851 11.7303 22.6548H10.9424C10.397 22.6548 9.95455 23.0972 9.95455 23.6427V25.9397C9.95455 26.4851 10.397 26.9275 10.9424 26.9275H13.2394C13.7849 26.9275 14.2273 26.4851 14.2273 25.9397V23.6427C14.2273 23.0972 13.7849 22.6548 13.2394 22.6548H12.7788C13.6273 19.4548 16.1909 16.9457 19.4091 16.17V16.3881C19.4091 16.9336 19.8515 17.376 20.397 17.376H22.6939C23.2394 17.376 23.6818 16.9336 23.6818 16.3881V16.17C26.8939 16.9457 29.4576 19.4548 30.3121 22.6548H29.8939C29.3485 22.6548 28.9061 23.0972 28.9061 23.6427V25.9397C28.9061 26.4851 29.3485 26.9275 29.8939 26.9275H32.1909C32.7364 26.9275 33.1788 26.4851 33.1788 25.9397V23.6427C33.1788 23.0972 32.7364 22.6548 32.1909 22.6548H31.3606C30.6515 19.6851 28.6273 17.2185 25.9485 15.9154H30.9C30.997 16.1942 31.1546 16.4488 31.3667 16.6609C31.7485 17.0548 32.2576 17.2548 32.7849 17.2548C33.1182 17.2548 33.4576 17.176 33.7788 17.0124C34.1242 16.8366 34.4091 16.5457 34.5788 16.1881C34.9727 15.3578 34.8333 14.4548 34.2091 13.8185C33.4152 13.0669 32.1 13.073 31.3424 13.8245ZM11.1667 15.7578C11.0939 15.9033 10.9727 16.0306 10.8273 16.1033C10.3 16.37 9.84546 16.2003 9.59698 15.9397C9.4091 15.7578 9.30607 15.5094 9.30607 15.2427C9.30607 14.9821 9.4091 14.7336 9.59698 14.5397C9.78485 14.3518 10.0333 14.2488 10.3 14.2488C10.5606 14.2488 10.8152 14.3518 10.997 14.5336C11.3121 14.8609 11.3727 15.3154 11.1667 15.7578ZM13.2273 25.9094L10.9606 25.9397L10.9303 23.673H13.197L13.2273 25.9094ZM32.1727 25.9094L29.9061 25.9397L29.8758 23.673H32.1424L32.1727 25.9094ZM20.4152 16.3942L20.403 15.6306C20.4152 15.576 20.4152 15.5215 20.4091 15.4609V15.4548C20.4091 15.4366 20.4212 15.4245 20.4212 15.4063C20.4212 15.376 20.4091 15.3518 20.403 15.3275L20.3849 14.1336H22.6515L22.6697 15.3275C22.6636 15.3578 22.6515 15.3821 22.6515 15.4124C22.6515 15.4306 22.6576 15.4427 22.6636 15.4609V15.4669C22.6515 15.5457 22.6576 15.6185 22.6758 15.6851L22.6879 16.37L20.4152 16.3942ZM33.6333 15.7578C33.5606 15.9033 33.4394 16.0306 33.2939 16.1033C32.7667 16.37 32.3121 16.2003 32.0636 15.9397C31.8758 15.7578 31.7727 15.5094 31.7727 15.2427C31.7727 14.9821 31.8758 14.7336 32.0636 14.5397C32.2515 14.3518 32.5 14.2488 32.7667 14.2488C33.0273 14.2488 33.2818 14.3518 33.4636 14.5336C33.7788 14.8609 33.8394 15.3154 33.6333 15.7578Z" fill="#F2A700"/>
</svg>
