<svg width="41" height="41" viewBox="0 0 41 41" fill="none" xmlns="http://www.w3.org/2000/svg">
<path d="M36.5413 34.0952H31.75C31.4864 33.1931 30.9375 32.4008 30.1856 31.8371C29.4336 31.2734 28.5192 30.9688 27.5794 30.9688C26.6396 30.9688 25.7252 31.2734 24.9732 31.8371C24.2212 32.4008 23.6723 33.1931 23.4087 34.0952H3C2.66848 34.0952 2.35054 34.2269 2.11612 34.4613C1.8817 34.6957 1.75 35.0136 1.75 35.3452C1.75 35.6767 1.8817 35.9946 2.11612 36.2291C2.35054 36.4635 2.66848 36.5952 3 36.5952H23.4125C23.6771 37.4957 24.2263 38.2865 24.9777 38.8489C25.7292 39.4113 26.6426 39.7152 27.5813 39.7152C28.5199 39.7152 29.4333 39.4113 30.1848 38.8489C30.9362 38.2865 31.4854 37.4957 31.75 36.5952H36.5375C36.869 36.5952 37.187 36.4635 37.4214 36.2291C37.6558 35.9946 37.7875 35.6767 37.7875 35.3452C37.7875 35.0136 37.6558 34.6957 37.4214 34.4613C37.187 34.2269 36.869 34.0952 36.5375 34.0952H36.5413ZM27.5837 37.2202C27.2129 37.2202 26.8504 37.1102 26.5421 36.9042C26.2337 36.6981 25.9934 36.4053 25.8515 36.0627C25.7096 35.7201 25.6724 35.3432 25.7448 34.9795C25.8171 34.6158 25.9957 34.2816 26.2579 34.0193C26.5201 33.7571 26.8542 33.5785 27.218 33.5062C27.5817 33.4338 27.9587 33.471 28.3013 33.6129C28.6439 33.7548 28.9367 33.9952 29.1428 34.3036C29.3488 34.6119 29.4587 34.9743 29.4587 35.3452C29.4587 35.8424 29.2612 36.3195 28.9096 36.6711C28.5579 37.0227 28.081 37.2202 27.5837 37.2202Z" fill="#00A9ED"/>
<path d="M35.325 2.22021H5.675C4.63433 2.2212 3.63657 2.63505 2.9007 3.37091C2.16484 4.10678 1.75099 5.10455 1.75 6.14522V25.7952C1.75099 26.8359 2.16484 27.8336 2.9007 28.5695C3.63657 29.3054 4.63433 29.7192 5.675 29.7202H35.325C36.3657 29.7192 37.3634 29.3054 38.0993 28.5695C38.8352 27.8336 39.249 26.8359 39.25 25.7952V6.14522C39.249 5.10455 38.8352 4.10678 38.0993 3.37091C37.3634 2.63505 36.3657 2.2212 35.325 2.22021ZM36.75 25.7952C36.7497 26.173 36.5994 26.5353 36.3323 26.8025C36.0651 27.0696 35.7028 27.2199 35.325 27.2202H5.675C5.29717 27.2199 4.93491 27.0696 4.66774 26.8025C4.40057 26.5353 4.25033 26.173 4.25 25.7952V6.14522C4.25033 5.76739 4.40057 5.40512 4.66774 5.13795C4.93491 4.87078 5.29717 4.72054 5.675 4.72021H35.325C35.7028 4.72054 36.0651 4.87078 36.3323 5.13795C36.5994 5.40512 36.7497 5.76739 36.75 6.14522V25.7952Z" fill="#00A9ED"/>
<path d="M27.4125 14.9102L17.4125 8.66022C17.2233 8.54196 17.0059 8.47651 16.7828 8.47065C16.5598 8.46479 16.3392 8.51875 16.144 8.62692C15.9489 8.73508 15.7862 8.89352 15.673 9.08577C15.5597 9.27803 15.5 9.49709 15.5 9.72022V22.2202C15.5 22.4433 15.5597 22.6624 15.673 22.8547C15.7862 23.0469 15.9489 23.2053 16.144 23.3135C16.3392 23.4217 16.5598 23.4756 16.7828 23.4698C17.0059 23.4639 17.2233 23.3985 17.4125 23.2802L27.4125 17.0302C27.5934 16.9181 27.7427 16.7617 27.8462 16.5757C27.9497 16.3898 28.004 16.1805 28.004 15.9677C28.004 15.7549 27.9497 15.5456 27.8462 15.3597C27.7427 15.1737 27.5934 15.0173 27.4125 14.9052V14.9102ZM18 19.9702V11.9702L24.3913 15.9702L18 19.9702Z" fill="#00A9ED"/>
</svg>
